<?xml version="1.0" encoding="UTF-8" standalone="no"?>
<!DOCTYPE svg PUBLIC "-//W3C//DTD SVG 1.1//EN" "http://www.w3.org/Graphics/SVG/1.1/DTD/svg11.dtd">
<svg xmlns="http://www.w3.org/2000/svg"  version="1.1" width="698.0" height="380.0" viewBox="-6.0 -12.0 692.0 368.0">
	<desc>LSD Plot - Sim3</desc>
	<polyline points="210.0,6.0 210.0,304.0" fill="none" stroke="#f0f0f0" />
	<polyline points="360.0,6.0 360.0,304.0" fill="none" stroke="#f0f0f0" />
	<polyline points="510.0,6.0 510.0,304.0" fill="none" stroke="#f0f0f0" />
	<polyline points="61.0,80.0 659.0,80.0" fill="none" stroke="#f0f0f0" />
	<polyline points="61.0,155.0 659.0,155.0" fill="none" stroke="#f0f0f0" />
	<polyline points="61.0,230.0 659.0,230.0" fill="none" stroke="#f0f0f0" />
	<text x="5.0" y="345.0" font-family="Arial" font-size="9pt">Ave_HHI_R</text>
	<polyline points="60.0,255.0 66.0,294.0 72.0,296.0 78.0,188.0 84.0,178.0 90.0,293.0 96.0,237.0 102.0,185.0 108.0,187.0 114.0,192.0 120.0,199.0 126.0,102.0 132.0,251.0 138.0,172.0 144.0,174.0 150.0,301.0 156.0,285.0 163.0,264.0 169.0,222.0 175.0,211.0 181.0,213.0 187.0,273.0 193.0,212.0 199.0,159.0 205.0,176.0 211.0,161.0 217.0,202.0 223.0,183.0 229.0,174.0 235.0,293.0 241.0,290.0 247.0,283.0 253.0,304.0 260.0,244.0 266.0,231.0 272.0,208.0 278.0,200.0 284.0,144.0 290.0,132.0 296.0,101.0 302.0,231.0 308.0,286.0 314.0,251.0 320.0,219.0 326.0,204.0 332.0,167.0 338.0,204.0 344.0,184.0 350.0,202.0 356.0,281.0 363.0,241.0 369.0,165.0 375.0,157.0 381.0,196.0 387.0,142.0 393.0,126.0 399.0,219.0 405.0,198.0 411.0,227.0 417.0,186.0 423.0,170.0 429.0,186.0 435.0,177.0 441.0,123.0 447.0,142.0 453.0,121.0 460.0,218.0 466.0,237.0 472.0,209.0 478.0,257.0 484.0,199.0 490.0,250.0 496.0,305.0 502.0,261.0 508.0,269.0 514.0,228.0 520.0,160.0 526.0,247.0 532.0,205.0 538.0,266.0 544.0,180.0 550.0,130.0 556.0,116.0 563.0,6.0 569.0,292.0 575.0,235.0 581.0,170.0 587.0,85.0 593.0,176.0 599.0,135.0 605.0,148.0 611.0,142.0 617.0,151.0 623.0,100.0 629.0,174.0 635.0,297.0 641.0,219.0 647.0,233.0 653.0,298.0 659.0,226.0" fill="none" stroke="#000000" />
	<polyline points="60.0,5.0 660.0,5.0" fill="none" stroke="#6d6d6d" />
	<polyline points="60.0,305.0 660.0,305.0" fill="none" stroke="#6d6d6d" />
	<polyline points="60.0,305.0 60.0,310.0" fill="none" stroke="#6d6d6d" />
	<polyline points="210.0,305.0 210.0,310.0" fill="none" stroke="#6d6d6d" />
	<polyline points="360.0,305.0 360.0,310.0" fill="none" stroke="#6d6d6d" />
	<polyline points="510.0,305.0 510.0,310.0" fill="none" stroke="#6d6d6d" />
	<polyline points="660.0,305.0 660.0,310.0" fill="none" stroke="#6d6d6d" />
	<polyline points="60.0,5.0 60.0,305.0" fill="none" stroke="#6d6d6d" />
	<polyline points="660.0,5.0 660.0,305.0" fill="none" stroke="#6d6d6d" />
	<polyline points="55.0,5.0 60.0,5.0" fill="none" stroke="#6d6d6d" />
	<polyline points="55.0,80.0 60.0,80.0" fill="none" stroke="#6d6d6d" />
	<polyline points="55.0,155.0 60.0,155.0" fill="none" stroke="#6d6d6d" />
	<polyline points="55.0,230.0 60.0,230.0" fill="none" stroke="#6d6d6d" />
	<polyline points="55.0,305.0 60.0,305.0" fill="none" stroke="#6d6d6d" />
	<text x="60.0" y="323.0" fill="#6d6d6d" font-family="Arial" font-size="9pt" text-anchor="middle">1</text>
	<text x="210.0" y="323.0" fill="#6d6d6d" font-family="Arial" font-size="9pt" text-anchor="middle">25</text>
	<text x="360.0" y="323.0" fill="#6d6d6d" font-family="Arial" font-size="9pt" text-anchor="middle">50</text>
	<text x="510.0" y="323.0" fill="#6d6d6d" font-family="Arial" font-size="9pt" text-anchor="middle">75</text>
	<text x="660.0" y="323.0" fill="#6d6d6d" font-family="Arial" font-size="9pt" text-anchor="middle">100</text>
	<text x="50.0" y="9.0" fill="#6d6d6d" font-family="Arial" font-size="9pt" text-anchor="end">14.2</text>
	<text x="50.0" y="84.0" fill="#6d6d6d" font-family="Arial" font-size="9pt" text-anchor="end">10.7</text>
	<text x="50.0" y="159.0" fill="#6d6d6d" font-family="Arial" font-size="9pt" text-anchor="end">7.1</text>
	<text x="50.0" y="234.0" fill="#6d6d6d" font-family="Arial" font-size="9pt" text-anchor="end">3.55</text>
	<text x="50.0" y="309.0" fill="#6d6d6d" font-family="Arial" font-size="9pt" text-anchor="end">0</text>
</svg>
