<?xml version="1.0" encoding="UTF-8" standalone="no"?>
<!DOCTYPE svg PUBLIC "-//W3C//DTD SVG 1.1//EN" "http://www.w3.org/Graphics/SVG/1.1/DTD/svg11.dtd">
<svg xmlns="http://www.w3.org/2000/svg"  version="1.1" width="693.0" height="380.0" viewBox="-6.0 -12.0 687.0 368.0">
	<desc>LSD Plot - Sim2</desc>
	<polyline points="205.0,6.0 205.0,304.0" fill="none" stroke="#f0f0f0" />
	<polyline points="355.0,6.0 355.0,304.0" fill="none" stroke="#f0f0f0" />
	<polyline points="505.0,6.0 505.0,304.0" fill="none" stroke="#f0f0f0" />
	<polyline points="56.0,80.0 654.0,80.0" fill="none" stroke="#f0f0f0" />
	<polyline points="56.0,155.0 654.0,155.0" fill="none" stroke="#f0f0f0" />
	<polyline points="56.0,230.0 654.0,230.0" fill="none" stroke="#f0f0f0" />
	<text x="5.0" y="345.0" font-family="Arial" font-size="9pt">ConsistencyT_R</text>
	<polyline points="55.0,302.0 61.0,8.0 67.0,302.0 73.0,302.0 79.0,302.0 85.0,302.0 91.0,302.0 97.0,302.0 103.0,302.0 109.0,302.0 115.0,302.0 121.0,302.0 127.0,302.0 133.0,302.0 139.0,302.0 145.0,302.0 151.0,302.0 158.0,302.0 164.0,302.0 170.0,302.0 176.0,302.0 182.0,302.0 188.0,302.0 194.0,302.0 200.0,302.0 206.0,302.0 212.0,302.0 218.0,302.0 224.0,302.0 230.0,302.0 236.0,302.0 242.0,302.0 248.0,302.0 255.0,302.0 261.0,302.0 267.0,302.0 273.0,302.0 279.0,302.0 285.0,302.0 291.0,302.0 297.0,302.0 303.0,302.0 309.0,302.0 315.0,302.0 321.0,302.0 327.0,302.0 333.0,302.0 339.0,302.0 345.0,302.0 351.0,302.0 358.0,302.0 364.0,302.0 370.0,302.0 376.0,302.0 382.0,302.0 388.0,302.0 394.0,302.0 400.0,302.0 406.0,302.0 412.0,302.0 418.0,302.0 424.0,302.0 430.0,302.0 436.0,302.0 442.0,302.0 448.0,302.0 455.0,302.0 461.0,302.0 467.0,302.0 473.0,302.0 479.0,302.0 485.0,8.0 491.0,8.0 497.0,8.0 503.0,8.0 509.0,8.0 515.0,8.0 521.0,8.0 527.0,8.0 533.0,8.0 539.0,8.0 545.0,8.0 551.0,8.0 558.0,8.0 564.0,8.0 570.0,8.0 576.0,8.0 582.0,8.0 588.0,8.0 594.0,8.0 600.0,8.0 606.0,8.0 612.0,8.0 618.0,8.0 624.0,8.0 630.0,8.0 636.0,8.0 642.0,8.0 648.0,8.0 654.0,8.0" fill="none" stroke="#000000" />
	<polyline points="55.0,5.0 655.0,5.0" fill="none" stroke="#6d6d6d" />
	<polyline points="55.0,305.0 655.0,305.0" fill="none" stroke="#6d6d6d" />
	<polyline points="55.0,305.0 55.0,310.0" fill="none" stroke="#6d6d6d" />
	<polyline points="205.0,305.0 205.0,310.0" fill="none" stroke="#6d6d6d" />
	<polyline points="355.0,305.0 355.0,310.0" fill="none" stroke="#6d6d6d" />
	<polyline points="505.0,305.0 505.0,310.0" fill="none" stroke="#6d6d6d" />
	<polyline points="655.0,305.0 655.0,310.0" fill="none" stroke="#6d6d6d" />
	<polyline points="55.0,5.0 55.0,305.0" fill="none" stroke="#6d6d6d" />
	<polyline points="655.0,5.0 655.0,305.0" fill="none" stroke="#6d6d6d" />
	<polyline points="50.0,5.0 55.0,5.0" fill="none" stroke="#6d6d6d" />
	<polyline points="50.0,80.0 55.0,80.0" fill="none" stroke="#6d6d6d" />
	<polyline points="50.0,155.0 55.0,155.0" fill="none" stroke="#6d6d6d" />
	<polyline points="50.0,230.0 55.0,230.0" fill="none" stroke="#6d6d6d" />
	<polyline points="50.0,305.0 55.0,305.0" fill="none" stroke="#6d6d6d" />
	<text x="55.0" y="323.0" fill="#6d6d6d" font-family="Arial" font-size="9pt" text-anchor="middle">1</text>
	<text x="205.0" y="323.0" fill="#6d6d6d" font-family="Arial" font-size="9pt" text-anchor="middle">25</text>
	<text x="355.0" y="323.0" fill="#6d6d6d" font-family="Arial" font-size="9pt" text-anchor="middle">50</text>
	<text x="505.0" y="323.0" fill="#6d6d6d" font-family="Arial" font-size="9pt" text-anchor="middle">75</text>
	<text x="655.0" y="323.0" fill="#6d6d6d" font-family="Arial" font-size="9pt" text-anchor="middle">100</text>
	<text x="45.0" y="9.0" fill="#6d6d6d" font-family="Arial" font-size="9pt" text-anchor="end">1.01</text>
	<text x="45.0" y="84.0" fill="#6d6d6d" font-family="Arial" font-size="9pt" text-anchor="end">0.755</text>
	<text x="45.0" y="159.0" fill="#6d6d6d" font-family="Arial" font-size="9pt" text-anchor="end">0.5</text>
	<text x="45.0" y="234.0" fill="#6d6d6d" font-family="Arial" font-size="9pt" text-anchor="end">0.245</text>
	<text x="45.0" y="309.0" fill="#6d6d6d" font-family="Arial" font-size="9pt" text-anchor="end">0</text>
</svg>
